# xmcd
#
# Track frame offsets: 
#        150
#        12828
#        27881
#        40604
#        52262
#        66685
#        78703
#        91114
#        106350
#        117737
#        129594
#        143060
#        154209
#        166012
#        178294
#        190242
#        203611
#        216854
#        228442
#        239994
#        251639
#        265683
#        277685
#        288984
#
# Disc length: 4032 seconds
#
# Revision: 0
# Processed by: cddbd v1.5.2PL0 Copyright (c) Steve Scherf et al.
# Submitted via: ExactAudioCopyFreeDBPlugin 1.0
#
DISCID=630fbe18
DTITLE=Various Artist - Black Secular Vocal Groups Vol. 3 (1923-1940)
DYEAR=1998
DGENRE=Blues
TTITLE0=Gulf Coast Minstrels - I Ain't Skeered of Work
TTITLE1=Gulf Coast Minstrels - Darktown Camp Meeting
TTITLE2=Seven Musical Magpies - Laughing Song
TTITLE3=Seven Musical Magpies - The Calliope
TTITLE4=Nonpareil Trio - The Yellow Dog Blues
TTITLE5=Nonpareil Trio - Susianna
TTITLE6=Four Dusty Travelers - The Lonesome Road
TTITLE7=Four Dusty Travelers - Dinah
TTITLE8=Norris the Troubador - Talk About Jerusalem Mornin'
TTITLE9=Norris the Troubador - Winter Will Soon Be Over
TTITLE10=The Hipp Cats - Chippin' Rock Blues
TTITLE11=The Hipp Cats - It Must Be Jelly ('Cause Jam Don't Shake Like
TTITLE11=That)
TTITLE12=Lewis Bronzeville Five - Laughing at Life
TTITLE13=Lewis Bronzeville Five - Linda Brown
TTITLE14=Lewis Bronzeville Five - Cotton Blossom Blues
TTITLE15=Lewis Bronzeville Five - Low Down Gal Blues
TTITLE16=Lewis Bronzeville Five - Mississippi Fire Blues
TTITLE17=Lewis Bronzeville Five - Natchez Mississippi Blues
TTITLE18=Lewis Bronzeville Five - Oh! Mabel, Oh!
TTITLE19=Lewis Bronzeville Five - It Can Happen to You
TTITLE20=The Four Blues - Honey Chile
TTITLE21=The Four Blues - Jitterbug Sadie
TTITLE22=The Four Blues - Easy Does It
TTITLE23=The Four Blues - Bluer Than Bluer Than Blue
EXTD=
EXTT0=
EXTT1=
EXTT2=
EXTT3=
EXTT4=
EXTT5=
EXTT6=
EXTT7=
EXTT8=
EXTT9=
EXTT10=
EXTT11=
EXTT12=
EXTT13=
EXTT14=
EXTT15=
EXTT16=
EXTT17=
EXTT18=
EXTT19=
EXTT20=
EXTT21=
EXTT22=
EXTT23=
PLAYORDER=
